<svg width="1080" height="1080" viewBox="0 0 1080 1080" fill="none" xmlns="http://www.w3.org/2000/svg">
<g clip-path="url(#clip0_703_93)">
<path d="M175.28 593.57H82.21C70.6341 593.57 61.25 602.954 61.25 614.53V707.6C61.25 719.176 70.6341 728.56 82.21 728.56H175.28C186.856 728.56 196.24 719.176 196.24 707.6V614.53C196.24 602.954 186.856 593.57 175.28 593.57Z" fill="#FFBB29" stroke="#FFBB29" stroke-width="4.5" stroke-miterlimit="10"/>
<path d="M147.16 239.43C151.86 239.43 155.67 235.62 155.67 230.92C155.67 226.22 151.86 222.41 147.16 222.41C142.46 222.41 138.65 226.22 138.65 230.92C138.65 235.62 142.46 239.43 147.16 239.43Z" fill="#BC7B40" stroke="#1F1F1F" stroke-width="4.5" stroke-linecap="round" stroke-linejoin="round"/>
<path d="M158.84 222.41C163.54 222.41 167.35 218.6 167.35 213.9C167.35 209.2 163.54 205.39 158.84 205.39C154.14 205.39 150.33 209.2 150.33 213.9C150.33 218.6 154.14 222.41 158.84 222.41Z" fill="#BC7B40" stroke="#1F1F1F" stroke-width="4.5" stroke-linecap="round" stroke-linejoin="round"/>
<path d="M171.53 207.44C176.23 207.44 180.04 203.63 180.04 198.93C180.04 194.23 176.23 190.42 171.53 190.42C166.83 190.42 163.02 194.23 163.02 198.93C163.02 203.63 166.83 207.44 171.53 207.44Z" fill="#BC7B40" stroke="#1F1F1F" stroke-width="4.5" stroke-linecap="round" stroke-linejoin="round"/>
<path d="M867.46 382.07C867.46 382.07 823.56 414.66 806.94 435.94C790.32 457.22 783.76 465.08 784.31 470.41C784.86 473.15 785.96 475.09 787.43 476.07C791.43 478.73 816.25 469.42 839.3 449.91C862.35 430.4 887.63 403.79 888.08 402.5C888.53 401.21 867.46 382.07 867.46 382.07Z" fill="#1F1F1F" stroke="#1F1F1F" stroke-width="4.5" stroke-linecap="round" stroke-linejoin="round"/>
<path d="M799.29 246.72C815.58 222.12 842.19 215.46 869.45 219.12C893.2 222.31 913.73 244.39 917.67 272C921.67 299.93 915.67 326.87 891.07 342.16C867.72 356.67 830.21 356.46 810.59 339.16C790.97 321.86 776.37 281.34 799.29 246.72Z" fill="#B53113" stroke="#1F1F1F" stroke-width="4.5" stroke-linecap="round" stroke-linejoin="round"/>
<path d="M896.06 405.68C905.94 406.54 948.93 412.33 963.9 413.33C978.87 414.33 982.85 416.33 982.52 421.33C982.19 426.33 971.88 426.98 956.91 426.65C942.85 426.34 909.69 425.32 899.38 422.65C889.07 419.98 888.41 405.01 896.06 405.68Z" fill="#BC7B40" stroke="#1F1F1F" stroke-width="4.5" stroke-linecap="round" stroke-linejoin="round"/>
<path d="M638.34 110.71C652.64 103.4 676.34 107.54 687.22 124.35C694.54 135.65 696.53 151.95 687.89 165.92C675.89 185.37 652.3 187.53 637.34 180.22C621.49 172.46 618.02 159.6 617.72 146.3C617.39 131.67 624.36 117.86 638.34 110.71Z" fill="#B53113" stroke="#1F1F1F" stroke-width="4.5" stroke-linecap="round" stroke-linejoin="round"/>
<path d="M687.89 165.92C702.94 145.61 734.44 135.32 759.38 140.98C784.32 146.64 808.55 168.98 811.59 205.82C813.92 234.09 795.59 255.37 778 266.01C761.89 275.74 734.77 276.65 716.15 268.34C693.7 258.34 678.57 238.41 675.58 219.46C672.59 200.51 673.59 185.2 687.89 165.92Z" fill="#B53113" stroke="#1F1F1F" stroke-width="4.5" stroke-linecap="round" stroke-linejoin="round"/>
<path d="M290.39 460.55C274.94 466.92 248.27 488.92 260.68 539.91C273.09 590.9 352.02 642.78 422.96 668.91C493.9 695.04 549.64 696.7 627.83 666.72C686.83 644.11 714.27 605.5 714.27 605.5C714.27 605.5 481.05 459.22 426.95 453.9C372.85 448.58 318.32 449.02 290.39 460.55Z" fill="#1F1F1F" stroke="#1F1F1F" stroke-width="4.5" stroke-linecap="round" stroke-linejoin="round"/>
<path d="M843.29 536.81C809.6 510.65 789.64 501.81 789.64 501.81L761.71 521.6C761.71 521.6 635.26 607.93 618.88 619.2C603.42 629.84 591.95 612.77 590.78 589.44C588.83 550.82 592.18 468.5 596.14 393.5L595.88 393.16L496.88 393.22C496.88 393.22 352.95 451.22 342.31 456.57C331.67 461.92 329.41 470.3 325.83 483.16C322.25 496.02 224.77 788.21 224.77 788.21C238.51 774.91 267.33 784.66 298.77 793.09C330.21 801.52 371.49 826.34 378.14 833.44C384.79 840.54 385.68 845.85 385.68 845.85L413.61 569.18L513.83 519.96C513.83 519.96 525.35 687.12 530.23 718.6C535.11 750.08 550.63 771.81 571.47 774.91C592.31 778.01 626 767.82 683.2 727.91C740.4 688 788.73 646.77 825.53 623.27C862.33 599.77 895.14 588.69 895.14 588.69C895.14 588.69 876.99 562.97 843.29 536.81Z" fill="white" stroke="#1F1F1F" stroke-width="4.5" stroke-linecap="round" stroke-linejoin="round"/>
<path d="M378.18 833.44C371.53 826.34 330.29 801.51 298.81 793.09C267.33 784.67 238.51 774.91 224.81 788.21C215.67 802.12 238.55 827.21 262.5 839.21C286.45 851.21 337.43 866.7 359.15 863.6C380.87 860.5 386.64 856.06 385.76 845.86C385.72 845.85 384.83 840.5 378.18 833.44Z" fill="#1F1F1F" stroke="#1F1F1F" stroke-width="4.5" stroke-linecap="round" stroke-linejoin="round"/>
<path d="M857.48 473.85C857.48 473.85 847.28 490.25 827.77 507.55C823.36 511.46 819.56 514.7 816.33 517.37C823.9 522.37 832.95 528.78 843.33 536.81C854.546 545.519 865.135 555.005 875.02 565.2C882.63 558.75 891.85 550.99 901.42 543.02C925.36 523.07 954.62 519.07 978.57 513.75C1002.52 508.43 1018.47 501.34 1019.36 489.37L857.48 473.85Z" fill="white" stroke="#1F1F1F" stroke-width="4.5" stroke-linecap="round" stroke-linejoin="round"/>
<path d="M555.53 156.83C550.8 164.98 547.53 175.89 546.22 188.75C544.91 201.61 547.11 204.75 554.22 206.49C558.767 207.512 563.499 207.357 567.97 206.04L555.97 239.3L551.1 261.5C551.1 261.5 558.2 267.26 574.6 268.15C591 269.04 604.31 261.05 604.31 261.05L605.42 240.44C601.901 231.979 599.442 223.115 598.1 214.05C596.33 202.53 617.57 187.89 619.38 169.71C622.04 143.11 602.26 137.66 593.22 137.35C580.36 136.87 563.52 143.08 555.53 156.83Z" fill="#BC7B40" stroke="#1F1F1F" stroke-width="4.5" stroke-linecap="round" stroke-linejoin="round"/>
<path d="M574.6 268.12C558.79 267.26 551.6 261.89 551.15 261.5C544.9 289.91 533.26 341.62 520.39 393.15H595.88L604.31 261.02C604.31 261.02 591.01 269 574.6 268.12Z" fill="#1F1F1F" stroke="#1F1F1F" stroke-width="4.5" stroke-linecap="round" stroke-linejoin="round"/>
<path d="M513.86 519.96L511.97 498.46" stroke="#1F1F1F" stroke-width="4.5" stroke-linecap="round" stroke-linejoin="round"/>
<path d="M593.22 137.32C580.36 136.87 563.52 143.08 555.53 156.83C554.81 158.07 554.13 159.39 553.47 160.76C561.03 166.33 572.06 166.58 577.15 166.58C583.15 166.58 588.44 166.22 595.15 163.26C601.15 160.6 607.05 164.46 605.46 170.26C602.8 179.9 594.81 180.57 592.15 188.26C589.49 195.95 591.49 201.89 598.15 214.08C596.38 202.56 617.62 187.92 619.43 169.74C622.04 143.08 602.26 137.63 593.22 137.32Z" fill="#B53113" stroke="#1F1F1F" stroke-width="4.5" stroke-linecap="round" stroke-linejoin="round"/>
<path d="M867.46 382.07C869.009 383.766 870.917 385.095 873.045 385.96C875.173 386.825 877.467 387.204 879.76 387.07C888.08 386.73 921 386.4 927.32 386.07C933.64 385.74 936.32 393.07 928.65 395.71C919.76 398.8 912.02 400.71 902.04 403.36C899.45 404.05 900.87 406.44 905.7 408.02C922.99 413.67 963.23 422.32 969.55 424.31C975.87 426.3 973.87 433.62 961.55 433.31C949.23 433 903.02 428.99 878.08 422.31C853.14 415.63 832.85 410.31 832.85 410.31C847.17 397.36 867.46 382.07 867.46 382.07Z" fill="#BC7B40" stroke="#1F1F1F" stroke-width="4.5" stroke-linecap="round" stroke-linejoin="round"/>
<path d="M189.83 220.81C193.34 226.88 193.18 245.93 199.43 260.94C205.68 275.95 217.28 281.72 217.28 281.72" stroke="#1F1F1F" stroke-width="4.5" stroke-linecap="round" stroke-linejoin="round"/>
<path d="M298.83 793.09C293.9 791.77 289.04 790.42 284.29 789.09C278.06 805.65 258.76 837.66 242.97 850.69C225.23 865.32 191.53 878.62 158.72 881.28C125.91 883.94 102.83 894.18 101.06 901.72C99.29 909.26 103.28 912.8 114.36 918.12C125.44 923.44 254.03 953.12 276.2 956.26C298.37 959.4 314.33 962.02 318.77 946.94C323.21 931.86 332.07 878.66 339.6 856.49C344.36 842.49 350.71 827.09 354.75 817.63C338.58 808.37 317.06 797.97 298.83 793.09Z" fill="white" stroke="#1F1F1F" stroke-width="4.5" stroke-linecap="round" stroke-linejoin="round"/>
<path d="M312.56 937.63C304.13 931.87 236.74 915.02 196.39 908.81C159.48 903.13 109.58 897.46 100.68 905.02C100.75 910.42 105.04 913.65 114.36 918.12C125.45 923.44 254.03 953.12 276.2 956.26C294.14 958.77 308.01 960.98 315 953.75C320.01 947.6 319.06 942.08 312.56 937.63Z" fill="white" stroke="#1F1F1F" stroke-width="4.5" stroke-linecap="round" stroke-linejoin="round"/>
<path d="M605.42 240.41C605.42 240.41 620.05 232.41 632.68 229.1C645.31 225.79 658.62 225.1 673.92 236.41C689.22 247.72 867.46 382.07 867.46 382.07C867.46 382.07 823.56 414.66 806.94 435.94C790.32 457.22 783.66 465.2 784.32 470.5L671.92 320.88C671.56 339.41 676.72 379.17 684.43 416.4C690.83 447.32 698.98 476.49 707.17 490.31C727.29 524.23 745.91 524.06 761.71 521.57C761.71 521.57 635.26 607.9 618.88 619.17C603.42 629.81 591.1 612.74 589.93 589.41C585.94 509.26 605.42 240.41 605.42 240.41Z" fill="#C2E7FF" stroke="#C2E7FF" stroke-width="4.5" stroke-linecap="round" stroke-linejoin="round"/>
<path d="M555.98 239.3C555.98 239.3 510.75 451.68 482.83 522.18C454.91 592.68 442.92 604.18 434.5 603.32C426.08 602.46 403.02 580.71 383.5 547.89C363.98 515.07 343.15 480.06 324.5 468.97C305.85 457.88 290.36 460.55 290.36 460.55L483.68 376.75C483.68 376.75 475.68 353.25 474.81 331.96C474.81 331.96 433.57 366.11 397.66 385.61C369.73 400.79 338.24 401.61 299.23 393.15C260.22 384.69 201.23 354.15 201.23 354.15C211.43 354.15 229.68 340.04 240.23 310.92C249.02 286.65 258.43 258.13 258.43 258.13L375.49 327.99C375.49 327.99 454.41 257.05 475.69 239.32C496.97 221.59 522.25 222.02 535.11 227.79C542.408 230.973 549.395 234.826 555.98 239.3Z" fill="#C2E7FF" stroke="#C2E7FF" stroke-width="4.5" stroke-linecap="round" stroke-linejoin="round"/>
<path d="M474.83 331.96C473.05 311.13 474.83 288.07 474.83 288.07" stroke="#1F1F1F" stroke-width="4.5" stroke-linecap="round" stroke-linejoin="round"/>
<path d="M671.92 320.88C671.26 310.68 671.15 298.94 671.15 298.94" stroke="#1F1F1F" stroke-width="4.5" stroke-linecap="round" stroke-linejoin="round"/>
<path d="M438.83 972.33C445.83 896.51 512.66 825.68 576.5 825.68C640.34 825.68 679.24 889.5 686.22 936.41C714.16 833.66 804.94 708.96 941.61 661.07" stroke="#1F1F1F" stroke-width="4.5" stroke-linecap="round" stroke-linejoin="round"/>
<path d="M258.46 258.11L375.52 327.97C375.52 327.97 454.44 257.03 475.72 239.3C497 221.57 522.28 222 535.14 227.77" stroke="#1F1F1F" stroke-width="4.5" stroke-linecap="round" stroke-linejoin="round"/>
<path d="M632.68 229.1C645.32 225.77 658.62 225.1 673.92 236.41C689.22 247.72 867.46 382.07 867.46 382.07" stroke="#1F1F1F" stroke-width="4.5" stroke-linecap="round" stroke-linejoin="round"/>
<path d="M761.71 521.57C761.71 521.57 635.26 607.9 618.88 619.17" stroke="#1F1F1F" stroke-width="4.5" stroke-linecap="round" stroke-linejoin="round"/>
<path d="M671.92 320.88C671.56 339.41 676.72 379.17 684.43 416.4" stroke="#1F1F1F" stroke-width="4.5" stroke-linecap="round" stroke-linejoin="round"/>
<path d="M867.46 382.07C867.46 382.07 823.56 414.66 806.94 435.94C790.32 457.22 783.66 465.2 784.32 470.5" stroke="#1F1F1F" stroke-width="4.5" stroke-linecap="round" stroke-linejoin="round"/>
<path d="M452.03 309.32C452.026 278.229 443.055 247.799 426.192 221.678C409.33 195.556 385.292 174.852 356.961 162.048C328.629 149.243 297.205 144.881 266.457 149.484C235.709 154.088 206.94 167.462 183.601 188.002C160.261 208.543 143.341 235.379 134.868 265.293C126.395 295.207 126.729 326.93 135.831 356.659C144.932 386.388 162.414 412.862 186.181 432.906C209.948 452.951 238.992 465.715 269.83 469.67L421.61 403.73C441.437 376.247 452.082 343.208 452.03 309.32Z" fill="#C4EED0" stroke="#C4EED0" stroke-width="4.5" stroke-miterlimit="10"/>
<path d="M395.52 260.66L362.02 227.16L262.82 326.35L219.3 282.83L185.79 316.34L262.68 393.22L262.82 393.08L262.96 393.22L395.52 260.66Z" fill="white" stroke="#1F1F1F" stroke-width="4.5" stroke-linecap="round" stroke-linejoin="round"/>
<path d="M290.39 147.68C247.52 147.68 206.407 164.71 176.093 195.023C145.78 225.337 128.75 266.45 128.75 309.32" stroke="#1F1F1F" stroke-width="4.5" stroke-linecap="round" stroke-linejoin="round"/>
<path d="M290.39 460.55L483.71 376.75C483.71 376.75 475.71 353.25 474.84 331.96" stroke="#1F1F1F" stroke-width="4.5" stroke-linecap="round" stroke-linejoin="round"/>
<path d="M290.39 460.55C274.94 466.92 248.27 488.92 260.68 539.91L290.39 460.55Z" fill="#1F1F1F"/>
<path d="M290.39 460.55C274.94 466.92 248.27 488.92 260.68 539.91" stroke="#1F1F1F" stroke-width="4.5" stroke-linecap="round" stroke-linejoin="round"/>
</g>
<defs>
<clipPath id="clip0_703_93">
<rect width="962.57" height="869.58" fill="white" transform="translate(59 105)"/>
</clipPath>
</defs>
</svg>
